<svg width="24" height="24" viewBox="0 0 24 24" fill="none" xmlns="http://www.w3.org/2000/svg">
<path d="M20.25 3.74999V21C20.25 21.1989 20.171 21.3897 20.0303 21.5303C19.8897 21.671 19.6989 21.75 19.5 21.75C19.3011 21.75 19.1103 21.671 18.9697 21.5303C18.829 21.3897 18.75 21.1989 18.75 21V16.5H14.25C14.0511 16.5 13.8603 16.421 13.7197 16.2803C13.579 16.1397 13.5 15.9489 13.5 15.75C13.5349 13.9534 13.7618 12.1658 14.1769 10.4175C15.0938 6.62156 16.8319 4.07718 19.2047 3.06093C19.3187 3.01208 19.4431 2.99228 19.5667 3.00331C19.6903 3.01435 19.8092 3.05587 19.9128 3.12415C20.0164 3.19244 20.1014 3.28536 20.1603 3.39458C20.2191 3.5038 20.2499 3.62592 20.25 3.74999ZM11.2397 3.62718C11.225 3.5287 11.1908 3.43413 11.1392 3.34899C11.0876 3.26384 11.0195 3.18983 10.939 3.13127C10.8585 3.07271 10.7671 3.03076 10.6702 3.00789C10.5733 2.98501 10.4728 2.98166 10.3746 2.99803C10.2764 3.0144 10.1824 3.05016 10.0982 3.10323C10.0139 3.1563 9.94107 3.22561 9.88389 3.30712C9.82671 3.38864 9.78634 3.48072 9.76512 3.578C9.7439 3.67529 9.74227 3.77582 9.76031 3.87374L10.4897 8.24999H8.25V3.74999C8.25 3.55108 8.17098 3.36031 8.03033 3.21966C7.88968 3.07901 7.69891 2.99999 7.5 2.99999C7.30109 2.99999 7.11032 3.07901 6.96967 3.21966C6.82902 3.36031 6.75 3.55108 6.75 3.74999V8.24999H4.51031L5.23969 3.87374C5.25773 3.77582 5.2561 3.67529 5.23488 3.578C5.21366 3.48072 5.17329 3.38864 5.11611 3.30712C5.05893 3.22561 4.98609 3.1563 4.90184 3.10323C4.81759 3.05016 4.72362 3.0144 4.62541 2.99803C4.52719 2.98166 4.4267 2.98501 4.32979 3.00789C4.23289 3.03076 4.14151 3.07271 4.06098 3.13127C3.98045 3.18983 3.9124 3.26384 3.86077 3.34899C3.80915 3.43413 3.775 3.5287 3.76031 3.62718L3.01031 8.12718C3.00351 8.16777 3.00006 8.20884 3 8.24999C3.0015 9.31294 3.37867 10.3411 4.06488 11.1529C4.75108 11.9647 5.70214 12.5078 6.75 12.6862V21C6.75 21.1989 6.82902 21.3897 6.96967 21.5303C7.11032 21.671 7.30109 21.75 7.5 21.75C7.69891 21.75 7.88968 21.671 8.03033 21.5303C8.17098 21.3897 8.25 21.1989 8.25 21V12.6862C9.29786 12.5078 10.2489 11.9647 10.9351 11.1529C11.6213 10.3411 11.9985 9.31294 12 8.24999C11.9999 8.20884 11.9965 8.16777 11.9897 8.12718L11.2397 3.62718Z" fill="#FF7A18"/>
</svg>
